{
  "accessors": [
    {
      "bufferView": 2,
      "componentType": 5126,
      "count": 52,
      "max": [
        2.103473663330078,
        12.908892631530762,
        -0.06473350524902344
      ],
      "min": [
        1.4779129028320313,
        -0.2754746675491333,
        -0.7003993988037109
      ],
      "type": "VEC3"
    },
    {
      "bufferView": 2,
      "byteOffset": 624,
      "componentType": 5126,
      "count": 52,
      "max": [
        1.0,
        1.0,
        1.0
      ],
      "min": [
        -1.0,
        -1.0,
        -1.0
      ],
      "type": "VEC3"
    },
    {
      "bufferView": 1,
      "componentType": 5126,
      "count": 52,
      "max": [
        0.65625,
        1.0
      ],
      "min": [
        0.34375,
        0.0
      ],
      "type": "VEC2"
    },
    {
      "bufferView": 0,
      "componentType": 5125,
      "count": 144,
      "type": "SCALAR"
    },
    {
      "bufferView": 2,
      "byteOffset": 1248,
      "componentType": 5126,
      "count": 43233,
      "max": [
        2.3004302978515625,
        16.810304641723633,
        2.59906005859375
      ],
      "min": [
        1.2845077514648438,
        0.24579095840454102,
        -3.1832313537597656
      ],
      "type": "VEC3"
    },
    {
      "bufferView": 2,
      "byteOffset": 520044,
      "componentType": 5126,
      "count": 43233,
      "max": [
        1.0,
        1.0,
        1.0
      ],
      "min": [
        -1.0,
        -1.0,
        -1.0
      ],
      "type": "VEC3"
    },
    {
      "bufferView": 1,
      "byteOffset": 416,
      "componentType": 5126,
      "count": 43233,
      "max": [
        1.0000001192092896,
        1.0
      ],
      "min": [
        -5.960464477539063e-08,
        -1.564621925354004e-07
      ],
      "type": "VEC2"
    },
    {
      "bufferView": 0,
      "byteOffset": 576,
      "componentType": 5125,
      "count": 106365,
      "type": "SCALAR"
    },
    {
      "bufferView": 2,
      "byteOffset": 1038840,
      "componentType": 5126,
      "count": 651,
      "max": [
        1.9690659046173096,
        16.856151580810547,
        2.5396692752838135
      ],
      "min": [
        1.5844886302947998,
        11.552005767822266,
        -3.2434277534484863
      ],
      "type": "VEC3"
    },
    {
      "bufferView": 2,
      "byteOffset": 1046652,
      "componentType": 5126,
      "count": 651,
      "max": [
        0.9994285106658936,
        0.8920454978942871,
        1.0
      ],
      "min": [
        -0.9994282722473145,
        -0.6397428512573242,
        -1.0
      ],
      "type": "VEC3"
    },
    {
      "bufferView": 1,
      "byteOffset": 346280,
      "componentType": 5126,
      "count": 651,
      "max": [
        0.875,
        1.0
      ],
      "min": [
        0.39523929357528687,
        0.0
      ],
      "type": "VEC2"
    },
    {
      "bufferView": 0,
      "byteOffset": 426036,
      "componentType": 5125,
      "count": 2628,
      "type": "SCALAR"
    },
    {
      "bufferView": 2,
      "byteOffset": 1054464,
      "componentType": 5126,
      "count": 176,
      "max": [
        1.8394317626953125,
        17.2607479095459,
        3.0231094360351563
      ],
      "min": [
        1.7141227722167969,
        10.559988021850586,
        -3.720195770263672
      ],
      "type": "VEC3"
    },
    {
      "bufferView": 2,
      "byteOffset": 1056576,
      "componentType": 5126,
      "count": 176,
      "max": [
        0.9994751214981079,
        0.32960376143455505,
        0.7375845909118652
      ],
      "min": [
        -0.9994750618934631,
        -0.30331629514694214,
        -0.7375892996788025
      ],
      "type": "VEC3"
    },
    {
      "bufferView": 1,
      "byteOffset": 351488,
      "componentType": 5126,
      "count": 176,
      "max": [
        0.39523929357528687,
        1.0
      ],
      "min": [
        0.125,
        0.0
      ],
      "type": "VEC2"
    },
    {
      "bufferView": 0,
      "byteOffset": 436548,
      "componentType": 5125,
      "count": 432,
      "type": "SCALAR"
    },
    {
      "bufferView": 2,
      "byteOffset": 1058688,
      "componentType": 5126,
      "count": 1800,
      "max": [
        2.222797393798828,
        8.349466323852539,
        0.06943321228027344
      ],
      "min": [
        1.3568801879882813,
        2.4123997688293457,
        -0.8304233551025391
      ],
      "type": "VEC3"
    },
    {
      "bufferView": 2,
      "byteOffset": 1080288,
      "componentType": 5126,
      "count": 1800,
      "max": [
        0.9990379810333252,
        1.0,
        0.9999791979789734
      ],
      "min": [
        -0.9962301254272461,
        -1.0,
        -0.997404932975769
      ],
      "type": "VEC3"
    },
    {
      "bufferView": 1,
      "byteOffset": 352896,
      "componentType": 5126,
      "count": 1800,
      "max": [
        0.6430554389953613,
        0.9844377636909485
      ],
      "min": [
        0.3568735122680664,
        0.012865591794252396
      ],
      "type": "VEC2"
    },
    {
      "bufferView": 0,
      "byteOffset": 438276,
      "componentType": 5125,
      "count": 5184,
      "type": "SCALAR"
    }
  ],
  "asset": {
    "extras": {
      "author": "NikolaiZhuravlev (https://sketchfab.com/NikolaiZhuravlev)",
      "license": "CC-BY-4.0 (http://creativecommons.org/licenses/by/4.0/)",
      "source": "https://sketchfab.com/3d-models/ax-9b331f3c2f2a4f92a96fb6b82a7177d4",
      "title": "Ax"
    },
    "generator": "Sketchfab-12.66.0",
    "version": "2.0"
  },
  "bufferViews": [
    {
      "buffer": 0,
      "byteLength": 459012,
      "name": "floatBufferViews",
      "target": 34963
    },
    {
      "buffer": 0,
      "byteLength": 367296,
      "byteOffset": 459012,
      "byteStride": 8,
      "name": "floatBufferViews",
      "target": 34962
    },
    {
      "buffer": 0,
      "byteLength": 1101888,
      "byteOffset": 826308,
      "byteStride": 12,
      "name": "floatBufferViews",
      "target": 34962
    }
  ],
  "buffers": [
    {
      "byteLength": 1928196,
      "uri": "scene.bin"
    }
  ],
  "materials": [
    {
      "doubleSided": true,
      "name": "lambert2",
      "pbrMetallicRoughness": {
        "baseColorFactor": [
          0.181162,
          0.0722721,
          0.0451856,
          1.0
        ],
        "metallicFactor": 0.0,
        "roughnessFactor": 0.6
      }
    },
    {
      "doubleSided": true,
      "name": "blinn2",
      "pbrMetallicRoughness": {
        "baseColorFactor": [
          0.134801,
          0.164655,
          0.167832,
          1.0
        ],
        "metallicFactor": 0.0,
        "roughnessFactor": 0.8888501192364651
      }
    },
    {
      "doubleSided": true,
      "name": "blinn3",
      "pbrMetallicRoughness": {
        "baseColorFactor": [
          0.296145,
          0.33717,
          0.371239,
          1.0
        ],
        "metallicFactor": 0.0,
        "roughnessFactor": 0.8737945273139985
      }
    },
    {
      "doubleSided": true,
      "name": "lambert3",
      "pbrMetallicRoughness": {
        "baseColorFactor": [
          0.20507599999999995,
          0.10223999999999996,
          0.048171700000000005,
          1.0
        ],
        "metallicFactor": 0.0017100487021870384,
        "roughnessFactor": 0.47539505925128744
      }
    }
  ],
  "meshes": [
    {
      "name": "polySurface10866_lambert2_0",
      "primitives": [
        {
          "attributes": {
            "NORMAL": 1,
            "POSITION": 0,
            "TEXCOORD_0": 2
          },
          "indices": 3,
          "material": 0,
          "mode": 4
        }
      ]
    },
    {
      "name": "polySurface11570_blinn2_0",
      "primitives": [
        {
          "attributes": {
            "NORMAL": 5,
            "POSITION": 4,
            "TEXCOORD_0": 6
          },
          "indices": 7,
          "material": 1,
          "mode": 4
        }
      ]
    },
    {
      "name": "polySurface11804_blinn2_0",
      "primitives": [
        {
          "attributes": {
            "NORMAL": 9,
            "POSITION": 8,
            "TEXCOORD_0": 10
          },
          "indices": 11,
          "material": 1,
          "mode": 4
        }
      ]
    },
    {
      "name": "polySurface11804_blinn3_0",
      "primitives": [
        {
          "attributes": {
            "NORMAL": 13,
            "POSITION": 12,
            "TEXCOORD_0": 14
          },
          "indices": 15,
          "material": 2,
          "mode": 4
        }
      ]
    },
    {
      "name": "polySurface11544_lambert3_0",
      "primitives": [
        {
          "attributes": {
            "NORMAL": 17,
            "POSITION": 16,
            "TEXCOORD_0": 18
          },
          "indices": 19,
          "material": 3,
          "mode": 4
        }
      ]
    }
  ],
  "nodes": [
    {
      "children": [
        1
      ],
      "matrix": [
        1.0,
        -1.60812262295773e-16,
        2.8327693431939985e-16,
        0.0,
        2.832769343193999e-16,
        3.828568672208042e-16,
        -1.0,
        0.0,
        1.6081226229577292e-16,
        1.0,
        3.828568672208042e-16,
        0.0,
        -1.3322676295501878e-15,
        4.190823558986625e-31,
        -1.887379141862766e-15,
        1.0
      ],
      "name": "Sketchfab_model"
    },
    {
      "children": [
        2
      ],
      "matrix": [
        1.0,
        0.0,
        0.0,
        0.0,
        0.0,
        0.0,
        1.0,
        0.0,
        0.0,
        -1.0,
        0.0,
        0.0,
        0.0,
        0.0,
        0.0,
        1.0
      ],
      "name": "d60112f3a1504ec3aab3ee9f919009b5.fbx"
    },
    {
      "children": [
        3,
        6,
        8,
        11
      ],
      "name": "RootNode"
    },
    {
      "children": [
        4
      ],
      "matrix": [
        1.0,
        0.0,
        0.0,
        0.0,
        0.0,
        1.0,
        0.0,
        0.0,
        0.0,
        0.0,
        1.0,
        0.0,
        0.0,
        2.6531004905700684,
        0.0,
        1.0
      ],
      "name": "polySurface8052"
    },
    {
      "children": [
        5
      ],
      "name": "polySurface10866"
    },
    {
      "mesh": 0,
      "name": "polySurface10866_lambert2_0"
    },
    {
      "children": [
        7
      ],
      "name": "polySurface11570"
    },
    {
      "mesh": 1,
      "name": "polySurface11570_blinn2_0"
    },
    {
      "children": [
        9,
        10
      ],
      "name": "polySurface11804"
    },
    {
      "mesh": 2,
      "name": "polySurface11804_blinn2_0"
    },
    {
      "mesh": 3,
      "name": "polySurface11804_blinn3_0"
    },
    {
      "children": [
        12
      ],
      "name": "polySurface11544"
    },
    {
      "mesh": 4,
      "name": "polySurface11544_lambert3_0"
    }
  ],
  "scene": 0,
  "scenes": [
    {
      "name": "Sketchfab_Scene",
      "nodes": [
        0
      ]
    }
  ]
}
